<?xml version="1.0" encoding="utf-8" ?><svg xmlns="http://www.w3.org/2000/svg" xmlns:xlink="http://www.w3.org/1999/xlink" width="2605" height="1420" viewBox="0 0 2605 1420"><path fill="white" transform="matrix(3.84786 0 0 3.84824 0 0.0078125)" d="M0 0L677 0L677 369L0 369L0 0Z"/><defs><linearGradient id="gradient_0" gradientUnits="userSpaceOnUse" x1="300.73798" y1="251.0197" x2="387.92996" y2="135.72263"><stop offset="0" stop-color="#33127A"/><stop offset="1" stop-color="#7326E0"/></linearGradient></defs><path fill="url(#gradient_0)" transform="matrix(3.84786 0 0 3.84824 0 0.0078125)" d="M377.412 118.024C382.345 108.492 394.924 98.5555 405.192 95.7217C413.011 93.5635 436.402 87.5052 440.325 98.012C443.078 105.385 429.297 116.027 426.142 123.007C424.006 127.733 419.466 133.499 417.521 138.647C416.62 140.401 414.639 145 413.891 146.18C409.818 157.712 407.064 167.682 405.862 179.981C405.042 187.686 404.996 195.629 403.56 203.254C397.885 233.388 375.836 256.914 348.914 270.108C338.001 275.456 333.354 272.839 323.498 267.506C305.09 257.547 289.621 242.968 280.524 223.918C275.736 213.865 271.682 199.285 272.022 188.159C270.958 181.258 270.679 174.573 269.402 167.004L270.225 165.923C273.362 165.191 277.649 163.465 280.597 163.076C289.413 161.911 297.231 160.161 305.535 156.869C307.797 155.973 310.941 155.213 313.39 155.151C315.618 155.094 315.482 157.142 317.157 157.707L317.293 157.949C321.855 166.205 327.336 191.805 336.31 194.546C338.12 195.098 340.263 194.916 341.939 194.027C342.755 193.594 343.527 193.059 344.295 192.546C348.922 188.024 354.388 171.325 356.92 164.876C360.517 155.908 364.199 146.974 367.966 138.075C370.7 131.601 373.681 123.815 377.412 118.024Z"/><defs><linearGradient id="gradient_1" gradientUnits="userSpaceOnUse" x1="298.94189" y1="157.95416" x2="315.01382" y2="219.51047"><stop offset="0" stop-color="#551EB1"/><stop offset="1" stop-color="#802CF7"/></linearGradient></defs><path fill="url(#gradient_1)" transform="matrix(3.84786 0 0 3.84824 0 0.0078125)" d="M269.402 167.004L270.225 165.923C273.362 165.191 277.649 163.465 280.597 163.076C289.413 161.911 297.231 160.161 305.535 156.869C307.797 155.973 310.941 155.213 313.39 155.151C315.618 155.094 315.482 157.142 317.157 157.707L317.293 157.949C321.855 166.205 327.336 191.805 336.31 194.546C338.12 195.098 340.263 194.916 341.939 194.027C342.755 193.594 343.527 193.059 344.295 192.546C344.504 193.286 344.445 193.929 344.158 194.643C340.359 204.069 334.608 212.14 325.423 216.857C318.666 220.398 309.319 221.434 302.123 218.864C287.692 213.71 279.915 200.119 274.161 186.837C273.82 186.048 273.446 185.579 272.635 185.338C271.849 186.28 272.106 186.639 272.022 188.159C270.958 181.258 270.679 174.573 269.402 167.004Z"/><path fill="#7B28EF" transform="matrix(3.84786 0 0 3.84824 0 0.0078125)" d="M377.412 118.024C382.345 108.492 394.924 98.5555 405.192 95.7217C413.011 93.5635 436.402 87.5052 440.325 98.012C443.078 105.385 429.297 116.027 426.142 123.007C424.006 127.733 419.466 133.499 417.521 138.647C416.62 140.401 414.639 145 413.891 146.18C411.536 146.819 411.778 151.67 409.954 154.033L409.501 154.015C409.49 153.539 409.484 153.069 409.523 152.595C401.59 151.378 399.223 147.366 393.059 142.911C387.568 138.942 381.747 135.814 377.174 130.597C376.259 129.552 374.781 129.187 373.475 128.734C372.691 125.934 377.778 121.578 377.412 118.024Z"/><defs><linearGradient id="gradient_2" gradientUnits="userSpaceOnUse" x1="267.1076" y1="87.792282" x2="283.96008" y2="162.95146"><stop offset="0" stop-color="#301273"/><stop offset="1" stop-color="#521CAE"/></linearGradient></defs><path fill="url(#gradient_2)" transform="matrix(3.84786 0 0 3.84824 0 0.0078125)" d="M269.402 167.004C265.256 148.808 258.124 133.469 247.716 118.028C243.822 112.252 233.803 104.511 237.115 97.2002C239.002 93.3053 243.554 92.2382 247.435 92.127C275.009 91.3368 296.878 104.402 306.13 130.975C309.099 139.504 314.133 148.736 317.157 157.707C315.482 157.142 315.618 155.094 313.39 155.151C310.941 155.213 307.797 155.973 305.535 156.869C297.231 160.161 289.413 161.911 280.597 163.076C277.649 163.465 273.362 165.191 270.225 165.923L269.402 167.004Z"/></svg>